<svg width="22" height="22" viewBox="0 0 22 22" fill="none" xmlns="http://www.w3.org/2000/svg">
<path d="M10.8408 19.6919C11.6611 19.6919 12.4502 19.5864 13.208 19.3755C13.9658 19.1646 14.6807 18.8638 15.3525 18.4731C16.0244 18.0825 16.626 17.6177 17.1572 17.0786C17.6885 16.5396 18.1533 15.9341 18.5518 15.2622C18.9502 14.5903 19.251 13.8794 19.4541 13.1294C19.6572 12.3794 19.7666 11.5864 19.7822 10.7505C19.7822 9.93018 19.6768 9.14111 19.4658 8.3833C19.2549 7.62549 18.9541 6.91064 18.5635 6.23877C18.1729 5.56689 17.708 4.96533 17.1689 4.43408C16.6299 3.90283 16.0244 3.43799 15.3525 3.03955C14.6807 2.64111 13.9697 2.34033 13.2197 2.13721C12.4697 1.93408 11.6768 1.82471 10.8408 1.80908C10.0205 1.80908 9.23145 1.91455 8.47363 2.12549C7.71582 2.33642 7.00098 2.63721 6.3291 3.02783C5.65723 3.41846 5.05567 3.8833 4.52442 4.42236C3.99317 4.96142 3.52832 5.56689 3.12988 6.23877C2.73145 6.91064 2.43067 7.62158 2.22754 8.37158C2.02442 9.12158 1.91504 9.91455 1.89941 10.7505C1.89941 11.5708 2.00488 12.3599 2.21582 13.1177C2.42676 13.8755 2.72754 14.5864 3.11816 15.2505C3.50879 15.9145 3.97754 16.52 4.52441 17.0669C5.07129 17.6138 5.67285 18.0786 6.3291 18.4614C6.98535 18.8442 7.69629 19.145 8.46191 19.3638C9.22754 19.5825 10.0205 19.6919 10.8408 19.6919ZM10.8408 21.1919C9.87988 21.1919 8.95801 21.0669 8.0752 20.8169C7.19238 20.5669 6.36035 20.2153 5.5791 19.7622C4.79785 19.3091 4.09473 18.7661 3.46973 18.1333C2.84473 17.5005 2.29785 16.7935 1.8291 16.0122C1.36035 15.231 1.00879 14.4028 0.774415 13.5278C0.54004 12.6528 0.41504 11.727 0.399415 10.7505C0.399415 9.78955 0.524415 8.86767 0.774415 7.98486C1.02442 7.10205 1.37598 6.27002 1.8291 5.48877C2.28223 4.70752 2.8252 4.00439 3.45801 3.37939C4.09082 2.75439 4.79785 2.20752 5.5791 1.73877C6.36035 1.27002 7.18848 0.918456 8.06348 0.684081C8.93848 0.449706 9.86426 0.324706 10.8408 0.309081C11.8018 0.309081 12.7236 0.434081 13.6064 0.684081C14.4893 0.934081 15.3213 1.28564 16.1025 1.73877C16.8838 2.19189 17.5869 2.73486 18.2119 3.36768C18.8369 4.00049 19.3838 4.70752 19.8525 5.48877C20.3213 6.27002 20.6729 7.09814 20.9072 7.97314C21.1416 8.84814 21.2666 9.77393 21.2822 10.7505C21.2822 11.7114 21.1572 12.6333 20.9072 13.5161C20.6572 14.3989 20.3057 15.231 19.8525 16.0122C19.3994 16.7935 18.8564 17.4966 18.2236 18.1216C17.5908 18.7466 16.8838 19.2935 16.1025 19.7622C15.3213 20.231 14.4932 20.5825 13.6182 20.8169C12.7432 21.0513 11.8174 21.1763 10.8408 21.1919ZM11.8721 5.28955L12.9268 6.34424L8.59082 10.6919L12.9268 15.0396L11.8721 16.0942L6.46973 10.6919L11.8721 5.28955Z" fill="#A6ACBE"/>
</svg>
