<svg width="22" height="22" viewBox="0 0 22 22" fill="none" xmlns="http://www.w3.org/2000/svg">
<path d="M11.1133 1.80908C10.293 1.80908 9.50391 1.91455 8.74609 2.12549C7.98828 2.33643 7.27344 2.63721 6.60156 3.02783C5.92969 3.41846 5.32812 3.8833 4.79688 4.42236C4.26562 4.96143 3.80078 5.56689 3.40234 6.23877C3.00391 6.91064 2.70312 7.62158 2.5 8.37158C2.29688 9.12158 2.1875 9.91455 2.17188 10.7505C2.17188 11.5708 2.27734 12.3599 2.48828 13.1177C2.69922 13.8755 3 14.5903 3.39062 15.2622C3.78125 15.9341 4.24609 16.5356 4.78516 17.0669C5.32422 17.5981 5.92969 18.063 6.60156 18.4614C7.27344 18.8599 7.98438 19.1606 8.73438 19.3638C9.48438 19.5669 10.2773 19.6763 11.1133 19.6919C11.9336 19.6919 12.7227 19.5864 13.4805 19.3755C14.2383 19.1646 14.9531 18.8638 15.625 18.4731C16.2969 18.0825 16.8984 17.6177 17.4297 17.0786C17.9609 16.5396 18.4258 15.9341 18.8242 15.2622C19.2227 14.5903 19.5234 13.8794 19.7266 13.1294C19.9297 12.3794 20.0391 11.5864 20.0547 10.7505C20.0547 9.93018 19.9492 9.14111 19.7383 8.3833C19.5273 7.62549 19.2266 6.91455 18.8359 6.25049C18.4453 5.58643 17.9766 4.98096 17.4297 4.43408C16.8828 3.88721 16.2812 3.42236 15.625 3.03955C14.9688 2.65674 14.2578 2.35596 13.4922 2.13721C12.7266 1.91846 11.9336 1.80908 11.1133 1.80908ZM11.1133 0.309082C12.0742 0.309082 12.9961 0.434082 13.8789 0.684082C14.7617 0.934082 15.5938 1.28564 16.375 1.73877C17.1562 2.19189 17.8594 2.73486 18.4844 3.36768C19.1094 4.00049 19.6562 4.70752 20.125 5.48877C20.5938 6.27002 20.9453 7.09814 21.1797 7.97314C21.4141 8.84814 21.5391 9.77393 21.5547 10.7505C21.5547 11.7114 21.4297 12.6333 21.1797 13.5161C20.9297 14.3989 20.5781 15.231 20.125 16.0122C19.6719 16.7935 19.1289 17.4966 18.4961 18.1216C17.8633 18.7466 17.1562 19.2935 16.375 19.7622C15.5938 20.231 14.7656 20.5825 13.8906 20.8169C13.0156 21.0513 12.0898 21.1763 11.1133 21.1919C10.1523 21.1919 9.23047 21.0669 8.34766 20.8169C7.46484 20.5669 6.63281 20.2153 5.85156 19.7622C5.07031 19.3091 4.36719 18.7661 3.74219 18.1333C3.11719 17.5005 2.57031 16.7935 2.10156 16.0122C1.63281 15.231 1.28125 14.4028 1.04688 13.5278C0.8125 12.6528 0.6875 11.7271 0.671875 10.7505C0.671875 9.78955 0.796875 8.86768 1.04688 7.98486C1.29688 7.10205 1.64844 6.27002 2.10156 5.48877C2.55469 4.70752 3.09766 4.00439 3.73047 3.37939C4.36328 2.75439 5.07031 2.20752 5.85156 1.73877C6.63281 1.27002 7.46094 0.918457 8.33594 0.684082C9.21094 0.449707 10.1367 0.324707 11.1133 0.309082ZM10.082 16.2114L9.02734 15.1567L13.3633 10.8091L9.02734 6.46143L10.082 5.40674L15.4844 10.8091L10.082 16.2114Z" fill="#A6ACBE"/>
</svg>
