<svg width="20" height="20" viewBox="0 0 20 20" fill="none" xmlns="http://www.w3.org/2000/svg">
<path d="M10 0C4.47254 0 0 4.47301 0 10C0 15.5275 4.47301 20 10 20C15.5275 20 20 15.527 20 10C20 4.47254 15.527 0 10 0ZM10 18.6667C5.22121 18.6667 1.33332 14.7788 1.33332 10C1.33332 5.22117 5.22121 1.33332 10 1.33332C14.7788 1.33332 18.6667 5.22121 18.6667 10C18.6667 14.7788 14.7788 18.6667 10 18.6667Z" fill="#DE4469"/>
<path d="M15.2931 6.32563C15.0327 6.06528 14.6106 6.06528 14.3503 6.32563L8.41522 12.2607L5.64882 9.4943C5.38847 9.23395 4.96632 9.23395 4.70601 9.4943C4.44565 9.75465 4.44565 10.1768 4.70601 10.4371L7.94378 13.6749C8.20409 13.9352 8.62636 13.9351 8.88659 13.6749L15.2931 7.26841C15.5534 7.00805 15.5534 6.58599 15.2931 6.32563Z" fill="#DE4469"/>
</svg>
