<svg width="21" height="24" viewBox="0 0 21 24" fill="none" xmlns="http://www.w3.org/2000/svg">
<path opacity="0.5" d="M21 17.3906C21 17.8125 20.9219 18.2109 20.7656 18.5859C20.6094 18.9609 20.3828 19.3008 20.0859 19.6055L15.75 23.9297L11.4141 19.6055C11.1172 19.3086 10.8906 18.9727 10.7344 18.5977C10.5781 18.2227 10.5 17.8203 10.5 17.3906C10.5 16.9609 10.582 16.5547 10.7461 16.1719C10.9102 15.7891 11.1328 15.457 11.4141 15.1758C11.6953 14.8945 12.0234 14.668 12.3984 14.4961C12.7734 14.3242 13.1836 14.2422 13.6289 14.25C14.0195 14.25 14.3984 14.3164 14.7656 14.4492C15.1328 14.582 15.4609 14.7891 15.75 15.0703C16.0469 14.7969 16.375 14.5938 16.7344 14.4609C17.0938 14.3281 17.4727 14.2578 17.8711 14.25C18.3008 14.25 18.707 14.332 19.0898 14.4961C19.4727 14.6602 19.8047 14.8828 20.0859 15.1641C20.3672 15.4453 20.5898 15.7812 20.7539 16.1719C20.918 16.5625 21 16.9688 21 17.3906ZM19.5 17.3906C19.5 17.1641 19.457 16.9531 19.3711 16.7578C19.2852 16.5625 19.168 16.3867 19.0195 16.2305C18.8711 16.0742 18.6992 15.957 18.5039 15.8789C18.3086 15.8008 18.0938 15.7578 17.8594 15.75C17.4141 15.75 17.0312 15.9102 16.7109 16.2305L15.75 17.1914L14.7891 16.2305C14.6328 16.0742 14.457 15.957 14.2617 15.8789C14.0664 15.8008 13.8594 15.7578 13.6406 15.75C13.4141 15.75 13.2031 15.793 13.0078 15.8789C12.8125 15.9648 12.6367 16.082 12.4805 16.2305C12.3242 16.3789 12.207 16.5508 12.1289 16.7461C12.0508 16.9414 12.0078 17.1562 12 17.3906C12 17.8359 12.1602 18.2188 12.4805 18.5391L15.75 21.8086L19.0195 18.5391C19.3398 18.2188 19.5 17.8359 19.5 17.3906ZM1.5 22.5H11.6602L13.1719 24H0V3H6C6 2.58594 6.07812 2.19922 6.23438 1.83984C6.39062 1.48047 6.60547 1.16016 6.87891 0.878906C7.15234 0.597656 7.46875 0.382812 7.82812 0.234375C8.1875 0.0859375 8.57812 0.0078125 9 0C9.41406 0 9.80078 0.078125 10.1602 0.234375C10.5195 0.390625 10.8398 0.605469 11.1211 0.878906C11.4023 1.15234 11.6172 1.46875 11.7656 1.82812C11.9141 2.1875 11.9922 2.57812 12 3H18V12.3867H17.9414C17.9258 12.3867 17.9023 12.3828 17.8711 12.375C17.6367 12.375 17.4062 12.3945 17.1797 12.4336C16.9531 12.4727 16.7266 12.5234 16.5 12.5859V4.5H15V7.5H3V4.5H1.5V22.5ZM4.5 4.5V6H13.5V4.5H10.5V3C10.5 2.6875 10.418 2.41406 10.2539 2.17969C10.0898 1.94531 9.86719 1.75781 9.58594 1.61719C9.40625 1.53906 9.21094 1.5 9 1.5C8.78906 1.5 8.59375 1.53906 8.41406 1.61719C8.13281 1.75 7.91016 1.93359 7.74609 2.16797C7.58203 2.40234 7.5 2.67969 7.5 3V4.5H4.5Z" fill="white"/>
</svg>
