<svg width="22" height="22" viewBox="0 0 22 22" fill="none" xmlns="http://www.w3.org/2000/svg">
<g opacity="0.5" clip-path="url(#clip0)">
<path d="M21.3121 9.62426C20.9327 9.62426 20.6247 9.93224 20.6247 10.3117V18.0965L15.125 20.2964V13.0616C15.125 12.6821 14.8171 12.3741 14.4376 12.3741C14.0581 12.3741 13.7501 12.6821 13.7501 13.0616V20.295L8.25046 18.0951V7.20303L11.4361 8.47758C11.784 8.61782 12.1882 8.44733 12.3298 8.09398C12.4714 7.742 12.2996 7.3419 11.9462 7.20028L7.83111 5.55313C7.83111 5.55313 7.83111 5.55313 7.82974 5.55313L7.81874 5.54901C7.65512 5.48301 7.47226 5.48301 7.30865 5.54901L7.29627 5.55313C7.29627 5.55313 7.29627 5.55313 7.2949 5.55313L0.4327 8.29884C0.172841 8.40333 0.000976562 8.65494 0.000976562 8.9368V21.311C0.000976562 21.5393 0.115094 21.7524 0.303458 21.8803C0.418951 21.9586 0.552317 21.9985 0.688434 21.9985C0.775053 21.9985 0.861673 21.982 0.944168 21.949L7.563 19.3023L14.1695 21.9449C14.1695 21.9449 14.1695 21.9449 14.1708 21.9449L14.1832 21.9504C14.3468 22.0164 14.5297 22.0164 14.6933 21.9504L14.7057 21.9449C14.7057 21.9449 14.7057 21.9449 14.7071 21.9449L21.5693 19.2006C21.8277 19.0947 21.9996 18.8431 21.9996 18.5612V10.3117C21.9996 9.93224 21.6916 9.62426 21.3121 9.62426ZM6.87555 18.0951L1.37589 20.295V9.40152L6.87555 7.20166V18.0951Z" fill="white"/>
<path d="M17.1874 2.75C16.0503 2.75 15.125 3.67532 15.125 4.81237C15.125 5.94943 16.0503 6.87474 17.1874 6.87474C18.3244 6.87474 19.2497 5.94943 19.2497 4.81237C19.2497 3.67532 18.3244 2.75 17.1874 2.75ZM17.1874 5.49983C16.8079 5.49983 16.4999 5.19185 16.4999 4.81237C16.4999 4.43289 16.8079 4.12491 17.1874 4.12491C17.5668 4.12491 17.8748 4.43289 17.8748 4.81237C17.8748 5.19185 17.5668 5.49983 17.1874 5.49983Z" fill="white"/>
<path d="M17.1872 0C14.5336 0 12.375 2.15862 12.375 4.8122C12.375 7.28155 16.2358 11.6551 16.6757 12.146C16.8063 12.2904 16.992 12.3742 17.1872 12.3742C17.3824 12.3742 17.5681 12.2904 17.6987 12.146C18.1386 11.6551 21.9994 7.28155 21.9994 4.8122C21.9994 2.15862 19.8408 0 17.1872 0ZM17.1872 10.6377C15.6858 8.8572 13.7499 6.12387 13.7499 4.8122C13.7499 2.91757 15.2926 1.37491 17.1872 1.37491C19.0818 1.37491 20.6245 2.91757 20.6245 4.8122C20.6245 6.12249 18.6886 8.8572 17.1872 10.6377Z" fill="white"/>
</g>
<defs>
<clipPath id="clip0">
<rect width="22" height="22" fill="white"/>
</clipPath>
</defs>
</svg>
