<svg width="20" height="20" viewBox="0 0 20 20" fill="none" xmlns="http://www.w3.org/2000/svg">
<path d="M15.95 3.84814L14.6749 18.3784H5.32676L4.05191 3.84814L2.43652 3.98975L3.73465 18.7835C3.80297 19.4654 4.39461 20 5.08191 20H14.9198C15.6068 20 16.1987 19.4657 16.2681 18.7738L17.5654 3.98975L15.95 3.84814Z" fill="#DE4469"/>
<path d="M12.9731 0H7.02715C6.28199 0 5.67578 0.606211 5.67578 1.35137V3.91895H7.29738V1.6216H12.7028V3.91891H14.3244V1.35133C14.3245 0.606211 13.7182 0 12.9731 0Z" fill="#DE4469"/>
<path d="M18.6491 3.1084H1.35184C0.903984 3.1084 0.541016 3.47137 0.541016 3.91922C0.541016 4.36707 0.903984 4.73004 1.35184 4.73004H18.6491C19.097 4.73004 19.46 4.36707 19.46 3.91922C19.46 3.47137 19.097 3.1084 18.6491 3.1084Z" fill="#DE4469"/>
</svg>
