<svg width="22" height="22" viewBox="0 0 22 22" fill="none" xmlns="http://www.w3.org/2000/svg">
<g opacity="0.5" clip-path="url(#clip0)">
<path d="M10.5439 13.9033C10.7957 14.155 11.2037 14.155 11.4554 13.9033L15.5143 9.8444C16.7252 8.63355 16.7252 6.66339 15.5143 5.45253C14.9277 4.86596 14.1478 4.54293 13.3182 4.54297C12.4886 4.54301 11.7087 4.86614 11.1222 5.45279L10.9996 5.57542L10.8765 5.45236C9.66575 4.24154 7.69554 4.2415 6.48451 5.45249C5.27086 6.66614 5.27069 8.63067 6.4846 9.84445L10.5439 13.9033ZM8.68056 5.83177C9.16576 5.83177 9.62192 6.0207 9.96502 6.36381L10.5439 6.94268C10.7955 7.19422 11.2038 7.19431 11.4555 6.94264L12.0338 6.3642C12.3769 6.02105 12.8331 5.83203 13.3183 5.83203C14.9245 5.8319 15.7479 7.78788 14.6029 8.93295L10.9997 12.5361L7.39618 8.93291C6.26305 7.8 7.05527 5.83177 8.68056 5.83177Z" fill="white"/>
<path d="M3.92103 16.6562H7.44502L10.4884 20.6288C10.7462 20.9653 11.254 20.9652 11.5116 20.6288L14.555 16.6562H18.079C20.241 16.6562 22 14.8972 22 12.7352V5.04017C22 2.87811 20.241 1.11914 18.079 1.11914H3.92103C1.75897 1.11914 0 2.87811 0 5.04017V12.7352C0 14.8973 1.75897 16.6562 3.92103 16.6562ZM1.28906 5.04017C1.28906 3.5889 2.46976 2.4082 3.92103 2.4082H18.079C19.5302 2.4082 20.7109 3.5889 20.7109 5.04017V12.7352C20.7109 14.1865 19.5302 15.3671 18.079 15.3671H14.2368C14.0363 15.3671 13.8472 15.4605 13.7252 15.6197L11 19.177L8.27479 15.6197C8.15285 15.4605 7.9637 15.3671 7.76316 15.3671H3.92103C2.46976 15.3671 1.28906 14.1865 1.28906 12.7352V5.04017Z" fill="white"/>
</g>
<defs>
<clipPath id="clip0">
<rect width="22" height="22" fill="white"/>
</clipPath>
</defs>
</svg>
