<svg width="22" height="22" viewBox="0 0 22 22" fill="none" xmlns="http://www.w3.org/2000/svg">
<g opacity="0.5" clip-path="url(#clip0)">
<path d="M11.0002 3.82617C9.15411 3.82617 7.65234 5.3279 7.65234 7.17401C7.65234 9.02013 9.15406 10.5219 11.0002 10.5219C12.8463 10.5219 14.348 9.02008 14.348 7.17401C14.348 5.32794 12.8463 3.82617 11.0002 3.82617ZM11.0002 9.5653C9.68211 9.5653 8.60889 8.49208 8.60889 7.17401C8.60889 5.85594 9.68211 4.78272 11.0002 4.78272C12.3182 4.78272 13.3915 5.85594 13.3915 7.17401C13.3915 8.49208 12.3183 9.5653 11.0002 9.5653Z" fill="white"/>
<path d="M17.696 7.65234C16.3779 7.65234 15.3047 8.72556 15.3047 10.0436C15.3047 11.3617 16.3779 12.4349 17.696 12.4349C19.014 12.4349 20.0873 11.3617 20.0873 10.0436C20.0873 8.72556 19.014 7.65234 17.696 7.65234ZM17.696 11.4784C16.9049 11.4784 16.2612 10.8347 16.2612 10.0436C16.2612 9.25258 16.9049 8.60885 17.696 8.60885C18.487 8.60885 19.1308 9.25258 19.1308 10.0436C19.1308 10.8347 18.487 11.4784 17.696 11.4784Z" fill="white"/>
<path d="M4.37176 7.65234C3.0527 7.65234 1.98047 8.72556 1.98047 10.0436C1.98047 11.3617 3.05369 12.4349 4.37176 12.4349C5.68983 12.4349 6.76305 11.3617 6.76305 10.0436C6.76305 8.72556 5.69078 7.65234 4.37176 7.65234ZM4.37176 11.4784C3.5807 11.4784 2.93698 10.8347 2.93698 10.0436C2.93698 9.25258 3.5807 8.60885 4.37176 8.60885C5.16282 8.60885 5.80654 9.25258 5.80654 10.0436C5.80654 10.8347 5.16277 11.4784 4.37176 11.4784Z" fill="white"/>
<path d="M10.9996 11.478C7.57144 11.478 4.78223 14.2672 4.78223 17.6954C4.78223 17.9594 4.9965 18.1737 5.2605 18.1737C5.5245 18.1737 5.73878 17.9594 5.73878 17.6954C5.73878 14.7943 8.0985 12.4346 10.9996 12.4346C13.9008 12.4346 16.2605 14.7943 16.2605 17.6954C16.2605 17.9594 16.4748 18.1737 16.7388 18.1737C17.0028 18.1737 17.217 17.9594 17.217 17.6954C17.217 14.2672 14.4278 11.478 10.9996 11.478Z" fill="white"/>
<path d="M17.6958 13.3911C16.9086 13.3911 16.1376 13.6063 15.4662 14.0129C15.2414 14.1506 15.1687 14.4442 15.3055 14.67C15.4441 14.8958 15.7368 14.9675 15.9626 14.8307C16.4839 14.5141 17.0827 14.3476 17.6958 14.3476C19.5419 14.3476 21.0436 15.8493 21.0436 17.6955C21.0436 17.9595 21.2579 18.1737 21.5219 18.1737C21.7859 18.1737 22.0002 17.9595 22.0002 17.6955C22.0002 15.3223 20.0689 13.3911 17.6958 13.3911Z" fill="white"/>
<path d="M6.53305 14.0119C5.86252 13.6063 5.09159 13.3911 4.30435 13.3911C1.93122 13.3911 0 15.3223 0 17.6955C0 17.9595 0.214276 18.1737 0.478276 18.1737C0.742275 18.1737 0.956551 17.9595 0.956551 17.6955C0.956506 15.8493 2.45827 14.3476 4.30435 14.3476C4.91749 14.3476 5.51624 14.5141 6.03662 14.8297C6.26139 14.9665 6.55601 14.8948 6.69375 14.669C6.83149 14.4433 6.75876 14.1496 6.53305 14.0119Z" fill="white"/>
</g>
<defs>
<clipPath id="clip0">
<rect width="22" height="22" fill="white"/>
</clipPath>
</defs>
</svg>
